<mxfile host="app.diagrams.net" modified="2024-07-17T13:23:05.055Z" agent="Mozilla/5.0 (Macintosh; Intel Mac OS X 10_15_7) AppleWebKit/537.36 (KHTML, like Gecko) Chrome/126.0.0.0 Safari/537.36" version="23.0.2" etag="mZB1wIR5ek1_thUT2DM0" type="github">
  <diagram name="Страница — 1" id="hdgRyzGxekrmIZ3NcP9e">
    <mxGraphModel>
      <root>
        <mxCell id="0" />
        <mxCell id="1" parent="0" />
      </root>
    </mxGraphModel>
  </diagram>
</mxfile>
